<?xml version="1.0" standalone="no"?><svg xmlns="http://www.w3.org/2000/svg" viewBox="0 0 1440 320"><path fill="#0099ff" fill-opacity="1" d="M0,128L34.3,144C68.6,160,137,192,206,202.7C274.3,213,343,203,411,202.7C480,203,549,213,617,208C685.7,203,754,181,823,160C891.4,139,960,117,1029,112C1097.1,107,1166,117,1234,128C1302.9,139,1371,149,1406,154.7L1440,160L1440,320L1405.7,320C1371.4,320,1303,320,1234,320C1165.7,320,1097,320,1029,320C960,320,891,320,823,320C754.3,320,686,320,617,320C548.6,320,480,320,411,320C342.9,320,274,320,206,320C137.1,320,69,320,34,320L0,320Z"></path></svg>